<?xml version="1.0" encoding="UTF-8" standalone="no"?>
<svg
   xmlns:dc="http://purl.org/dc/elements/1.1/"
   xmlns:cc="http://creativecommons.org/ns#"
   xmlns:rdf="http://www.w3.org/1999/02/22-rdf-syntax-ns#"
   xmlns:svg="http://www.w3.org/2000/svg"
   xmlns="http://www.w3.org/2000/svg"
   xmlns:sodipodi="http://sodipodi.sourceforge.net/DTD/sodipodi-0.dtd"
   xmlns:inkscape="http://www.inkscape.org/namespaces/inkscape"
   width="32"
   height="32"
   version="1.1"
   id="svg44"
   sodipodi:docname="applications-internet.svg"
   inkscape:version="0.92.5 (2060ec1f9f, 2020-04-08)">
  <sodipodi:namedview
     pagecolor="#ffffff"
     bordercolor="#666666"
     borderopacity="1"
     objecttolerance="10"
     gridtolerance="10"
     guidetolerance="10"
     inkscape:pageopacity="0"
     inkscape:pageshadow="2"
     inkscape:window-width="795"
     inkscape:window-height="480"
     id="namedview46"
     showgrid="false"
     inkscape:zoom="7.375"
     inkscape:cx="16"
     inkscape:cy="16"
     inkscape:window-x="0"
     inkscape:window-y="0"
     inkscape:window-maximized="0"
     inkscape:current-layer="svg44" />
  <metadata
     id="metadata2">
    <rdf:RDF>
      <cc:Work
         rdf:about="">
        <dc:format>image/svg+xml</dc:format>
        <dc:type
           rdf:resource="http://purl.org/dc/dcmitype/StillImage" />
        <dc:title />
      </cc:Work>
    </rdf:RDF>
  </metadata>
  <defs
     id="defs26">
    <radialGradient
       id="b"
       cx="417"
       cy="245.84"
       r="231.55"
       gradientTransform="matrix(.062425 0 0 .062425 -10.031 .65324)"
       gradientUnits="userSpaceOnUse">
      <stop
         stop-color="#00cef6"
         offset="0"
         id="stop4" />
      <stop
         stop-color="#009ad5"
         offset=".6"
         id="stop6" />
      <stop
         stop-color="#0a55da"
         offset="1"
         id="stop8" />
    </radialGradient>
    <linearGradient
       id="c"
       x1="417"
       x2="417"
       y1="49.971"
       y2="576.63"
       gradientTransform="matrix(.058919 0 0 .058919 -8.7286 1.6757)"
       gradientUnits="userSpaceOnUse">
      <stop
         stop-color="#f3f3f3"
         offset="0"
         id="stop11" />
      <stop
         stop-color="#b7b7b7"
         offset="1"
         id="stop13" />
    </linearGradient>
    <linearGradient
       id="d"
       x1="417"
       x2="417"
       y1="51.538"
       y2="573.98"
       gradientTransform="matrix(.058324 0 0 .058324 -8.4802 1.8222)"
       gradientUnits="userSpaceOnUse">
      <stop
         stop-color="#f3f3f3"
         offset="0"
         id="stop16" />
      <stop
         stop-color="#b7b7b7"
         offset="1"
         id="stop18" />
    </linearGradient>
    <linearGradient
       id="linearGradient863"
       x1="399.57"
       x2="399.57"
       y1="545.8"
       y2="517.8"
       gradientTransform="translate(-384.57 -515.8)"
       gradientUnits="userSpaceOnUse">
      <stop
         stop-color="#e5e5e5"
         offset="0"
         id="stop21" />
      <stop
         stop-color="#fdfdfd"
         offset="1"
         id="stop23" />
    </linearGradient>
    <filter
       color-interpolation-filters="sRGB"
       height="1.168"
       width="1.168"
       y="-.084"
       x="-.084"
       id="filter1015">
      <feGaussianBlur
         id="feGaussianBlur2"
         stdDeviation="0.3089756" />
    </filter>
    <filter
       color-interpolation-filters="sRGB"
       height="1.1218"
       width="1.1182"
       y="-.060921"
       x="-.059096"
       id="filter985">
      <feGaussianBlur
         id="feGaussianBlur5"
         stdDeviation="0.21619832" />
    </filter>
    <linearGradient
       gradientUnits="userSpaceOnUse"
       gradientTransform="matrix(1.2338882,0,0,1.2338882,-2.2779708,-2.1676924)"
       y2="12.495"
       y1="7.7203"
       x2="12.91"
       x1="7.9876"
       id="linearGradient1025">
      <stop
         id="stop8-3"
         offset="0"
         stop-color="#fafaff" />
      <stop
         id="stop10"
         offset="1"
         stop-color="#a1d8ff" />
    </linearGradient>
    <filter
       color-interpolation-filters="sRGB"
       height="1.054"
       width="1.054"
       y="-.027"
       x="-.027"
       id="filter1057-4-4">
      <feGaussianBlur
         id="feGaussianBlur13"
         stdDeviation="0.61875" />
    </filter>
    <linearGradient
       gradientUnits="userSpaceOnUse"
       gradientTransform="matrix(.2646 0 0 .2646 32.942 1.0363)"
       y2="5"
       y1="60"
       x2="-72"
       x1="-127"
       id="linearGradient1053-5-2">
      <stop
         id="stop16-6"
         offset="0"
         stop-color="#32d7ff" />
      <stop
         id="stop18-7"
         offset="1"
         stop-color="#329bff" />
    </linearGradient>
  </defs>
  <g
     id="g901"
     transform="matrix(1.889801,0,0,1.889801,-0.00686871,0.00573399)">
    <g
       id="g29"
       transform="translate(1.8521,-1.1717)"
       style="stroke-linecap:round">
      <rect
         id="rect25"
         ry="15"
         height="55"
         width="55"
         y="4.5"
         x="4.5"
         transform="matrix(0.2646,0,0,0.2646,-1.8525,1.1713)"
         style="opacity:0.3;fill:#141414;stroke-width:2.74440002;filter:url(#filter1057-4-4)" />
      <rect
         style="fill:#00d4aa;stroke-width:0.72613001"
         id="rect27"
         ry="3.9689"
         height="14.552"
         width="14.552"
         y="2.3619001"
         x="-0.66188002" />
    </g>
    <circle
       id="circle31"
       r="4.4138999"
       cy="8.3260002"
       cx="8.4673996"
       transform="translate(-8.5e-4,0.14045)"
       style="fill:#1496ff;filter:url(#filter1015)" />
    <path
       style="opacity:0.55;fill:#ffffff;stroke-width:1.23388815"
       inkscape:connector-curvature="0"
       id="path33"
       d="M 13.822148,7.548375 A 3.3128664,7.154824 52.956 0 1 13.588782,7.9475378 3.3128664,7.154824 52.956 0 1 13.247008,8.4512727 3.3128664,7.154824 52.956 0 1 12.856778,8.9562784 3.3128664,7.154824 52.956 0 1 12.422548,9.45873 3.3128664,7.154824 52.956 0 1 11.948785,9.9522606 3.3128664,7.154824 52.956 0 1 11.439312,10.432404 3.3128664,7.154824 52.956 0 1 10.90051,10.894692 3.3128664,7.154824 52.956 0 1 10.50326,11.208396 3.3128664,7.154824 52.956 0 1 9.9255658,11.629238 3.3128664,7.154824 52.956 0 1 9.3325714,12.020109 3.3128664,7.154824 52.956 0 1 8.7306438,12.376555 3.3128664,7.154824 52.956 0 1 8.1261743,12.695379 3.3128664,7.154824 52.956 0 1 7.5248882,12.974016 3.3128664,7.154824 52.956 0 1 6.9318939,13.209294 3.3128664,7.154824 52.956 0 1 6.4409175,13.36997 5.4463824,5.4463824 0 0 0 8.4347574,13.753191 5.4463824,5.4463824 0 0 0 13.88077,8.3065623 5.4463824,5.4463824 0 0 0 13.822111,7.5484243 Z" />
    <path
       style="opacity:0.25;fill:#0096ff;filter:url(#filter985)"
       inkscape:connector-curvature="0"
       id="path35"
       d="m 8.6817,4.075 a 4.4139,4.4139 0 0 0 -4.4141,4.4136 4.4139,4.4139 0 0 0 0.11989,0.99889 4.4139,4.4139 0 0 0 2.6783,3.1047 2.6848,5.7985 52.956 0 0 0.3979,-0.13022 2.6848,5.7985 52.956 0 0 0.48058,-0.19068 2.6848,5.7985 52.956 0 0 0.4873,-0.22582 2.6848,5.7985 52.956 0 0 0.48988,-0.25838 2.6848,5.7985 52.956 0 0 0.48782,-0.28887 2.6848,5.7985 52.956 0 0 0.48058,-0.31677 2.6848,5.7985 52.956 0 0 0.46818,-0.34106 2.6848,5.7985 52.956 0 0 0.32194,-0.25424 2.6848,5.7985 52.956 0 0 0.43666,-0.37465 2.6848,5.7985 52.956 0 0 0.41289,-0.38912 2.6848,5.7985 52.956 0 0 0.38395,-0.39997 2.6848,5.7985 52.956 0 0 0.35191,-0.4072 2.6848,5.7985 52.956 0 0 0.31625,-0.40927 2.6848,5.7985 52.956 0 0 0.27698,-0.40824 2.6848,5.7985 52.956 0 0 0.18913,-0.32349 4.4139,4.4139 0 0 0 -2.0665,-3.147 4.4139,4.4139 0 0 0 -2.2996,-0.65214 z"
       transform="matrix(1.1488733,0,0,1.1655308,-1.0633807,-1.2084924)" />
    <g
       id="g43">
      <path
         inkscape:connector-curvature="0"
         style="fill:url(#linearGradient1025);stroke-width:1.23388815"
         id="path37"
         d="M 8.4344983,2.8604636 A 5.4463824,5.4463824 0 0 0 2.987869,8.3064759 5.4463824,5.4463824 0 0 0 3.1357999,9.5390191 5.4463824,5.4463824 0 0 0 6.440646,13.369995 3.3128664,7.154824 52.956 0 0 6.9316225,13.209318 3.3128664,7.154824 52.956 0 0 7.5246168,12.97404 3.3128664,7.154824 52.956 0 0 8.1259028,12.695404 3.3128664,7.154824 52.956 0 0 8.7303723,12.376579 3.3128664,7.154824 52.956 0 0 9.3323,12.020134 3.3128664,7.154824 52.956 0 0 9.9252943,11.629263 3.3128664,7.154824 52.956 0 0 10.502988,11.20842 3.3128664,7.154824 52.956 0 0 10.900239,10.894717 3.3128664,7.154824 52.956 0 0 11.439041,10.432428 3.3128664,7.154824 52.956 0 0 11.948513,9.9522853 3.3128664,7.154824 52.956 0 0 12.422277,9.4587547 3.3128664,7.154824 52.956 0 0 12.856507,8.9563031 3.3128664,7.154824 52.956 0 0 13.246736,8.4512973 3.3128664,7.154824 52.956 0 0 13.588511,7.9475625 3.3128664,7.154824 52.956 0 0 13.821876,7.5483997 5.4463824,5.4463824 0 0 0 11.272046,3.6652302 5.4463824,5.4463824 0 0 0 8.434597,2.86055 Z" />
      <path
         style="opacity:0.55;fill:#ffffff;stroke-width:1.23388815"
         inkscape:connector-curvature="0"
         id="path39"
         d="m 13.811043,7.547758 a 3.3128664,7.154824 52.956 0 0 0.29712,-3.2717779 3.3128664,7.154824 52.956 0 0 -2.848184,-0.6108487 5.4463824,5.4463824 0 0 1 0.238473,0.1466477 5.4463824,5.4463824 0 0 1 0.433589,0.3290286 5.4463824,5.4463824 0 0 1 0.398521,0.3711042 5.4463824,5.4463824 0 0 1 0.358987,0.4093671 5.4463824,5.4463824 0 0 1 0.316912,0.4425216 5.4463824,5.4463824 0 0 1 0.270987,0.4724928 5.4463824,5.4463824 0 0 1 0.222531,0.4967141 5.4463824,5.4463824 0 0 1 0.171523,0.5164809 5.4463824,5.4463824 0 0 1 0.119231,0.5311518 5.4463824,5.4463824 0 0 1 0.02041,0.1670561 z" />
      <path
         style="opacity:0.55;fill:#ffffff;stroke-width:1.23388815"
         inkscape:connector-curvature="0"
         id="path41"
         d="M 3.1580222,9.5390068 A 3.3128664,7.154824 52.956 0 0 2.7716178,12.963787 3.3128664,7.154824 52.956 0 0 6.4629177,13.369958 5.4463824,5.4463824 0 0 1 6.3353953,13.323416 5.4463824,5.4463824 0 0 1 5.8450482,13.086226 5.4463824,5.4463824 0 0 1 5.3814887,12.801839 5.4463824,5.4463824 0 0 1 4.9479004,12.472193 5.4463824,5.4463824 0 0 1 4.5493792,12.101089 5.4463824,5.4463824 0 0 1 4.1903918,11.692364 5.4463824,5.4463824 0 0 1 3.8734799,11.249213 5.4463824,5.4463824 0 0 1 3.6024934,10.777362 5.4463824,5.4463824 0 0 1 3.3799617,10.280006 5.4463824,5.4463824 0 0 1 3.2084389,9.7635251 5.4463824,5.4463824 0 0 1 3.1580703,9.5390808 Z" />
    </g>
  </g>
</svg>
