<?xml version="1.0" encoding="UTF-8" standalone="no"?>
<svg
   width="64"
   height="64"
   version="1.1"
   viewBox="0 0 64 64"
   id="svg151"
   sodipodi:docname="drive-harddisk-root.svg"
   inkscape:version="1.1.2 (0a00cf5339, 2022-02-04)"
   xmlns:inkscape="http://www.inkscape.org/namespaces/inkscape"
   xmlns:sodipodi="http://sodipodi.sourceforge.net/DTD/sodipodi-0.dtd"
   xmlns:xlink="http://www.w3.org/1999/xlink"
   xmlns="http://www.w3.org/2000/svg"
   xmlns:svg="http://www.w3.org/2000/svg">
  <sodipodi:namedview
     id="namedview153"
     pagecolor="#ffffff"
     bordercolor="#666666"
     borderopacity="1.0"
     inkscape:pageshadow="2"
     inkscape:pageopacity="0.0"
     inkscape:pagecheckerboard="0"
     showgrid="false"
     inkscape:zoom="6.2013866"
     inkscape:cx="12.980968"
     inkscape:cy="39.991056"
     inkscape:window-width="1301"
     inkscape:window-height="744"
     inkscape:window-x="65"
     inkscape:window-y="24"
     inkscape:window-maximized="1"
     inkscape:current-layer="svg151" />
  <defs
     id="defs93">
    <linearGradient
       id="linearGradient1448"
       x1="3.9687"
       x2="3.9687"
       y1="16.404"
       y2="2.6458"
       gradientTransform="matrix(3.4647 0 0 3.4647 2.666 2.668)"
       gradientUnits="userSpaceOnUse">
      <stop
         stop-color="#737878"
         offset="0"
         id="stop2" />
      <stop
         stop-color="#d2e1e6"
         offset="1"
         id="stop4" />
    </linearGradient>
    <linearGradient
       id="linearGradient2244"
       x1="53.49"
       x2="69.711"
       y1="1029.6"
       y2="983.83"
       gradientTransform="matrix(.60606 0 0 .60606 2.908 -576.9)"
       gradientUnits="userSpaceOnUse">
      <stop
         stop-color="#83898b"
         offset="0"
         id="stop7" />
      <stop
         stop-color="#6f7677"
         offset=".1904"
         id="stop9" />
      <stop
         stop-color="#c2cfd3"
         offset=".39515"
         id="stop11" />
      <stop
         stop-color="#e6eef0"
         offset="1"
         id="stop13" />
    </linearGradient>
    <linearGradient
       id="linearGradient2242"
       x1="69.75"
       x2="69.75"
       y1="1001.1"
       y2="972.11"
       gradientTransform="matrix(.60606 0 0 .60606 4.121 -575.43)"
       gradientUnits="userSpaceOnUse">
      <stop
         stop-color="#d2dde0"
         offset="0"
         id="stop16" />
      <stop
         stop-color="#e0e8ea"
         offset=".35345"
         id="stop18" />
      <stop
         stop-color="#dbe5e7"
         offset="1"
         id="stop20" />
    </linearGradient>
    <linearGradient
       id="linearGradient2240"
       x1="50.912"
       x2="50.912"
       y1="1025.5"
       y2="988.02"
       gradientTransform="matrix(.57824 0 0 .55942 4.244 -530.07)"
       gradientUnits="userSpaceOnUse">
      <stop
         stop-color="#7d8385"
         offset="0"
         id="stop23" />
      <stop
         stop-color="#bccdd1"
         offset="1"
         id="stop25" />
    </linearGradient>
    <linearGradient
       id="linearGradient2232"
       x1="42.073"
       x2="42.073"
       y1="980.1"
       y2="964.86"
       gradientTransform="matrix(.58081 0 0 .53478 3.868 -506.98)"
       gradientUnits="userSpaceOnUse">
      <stop
         stop-color="#88969a"
         offset="0"
         id="stop28" />
      <stop
         stop-color="#c0cfd4"
         offset=".28696"
         id="stop30" />
      <stop
         stop-color="#b9c9ce"
         offset=".6087"
         id="stop32" />
      <stop
         stop-color="#d2e1e5"
         offset="1"
         id="stop34" />
    </linearGradient>
    <linearGradient
       id="linearGradient2230"
       x1="69.75"
       x2="69.75"
       y1="1001.1"
       y2="972.11"
       gradientTransform="matrix(.60606 0 0 .60606 2.908 -576.9)"
       gradientUnits="userSpaceOnUse">
      <stop
         stop-color="#a5b2b5"
         offset="0"
         id="stop37" />
      <stop
         stop-color="#b9cacd"
         offset=".35345"
         id="stop39" />
      <stop
         stop-color="#cad8db"
         offset="1"
         id="stop41" />
    </linearGradient>
    <linearGradient
       id="linearGradient2228"
       x1="57.188"
       x2="57.188"
       y1="977.17"
       y2="966.55"
       gradientTransform="matrix(.63494 0 0 .71627 1.811 -683.98)"
       gradientUnits="userSpaceOnUse">
      <stop
         stop-color="#b6c4c8"
         offset="0"
         id="stop44" />
      <stop
         stop-color="#ddecee"
         offset="1"
         id="stop46" />
    </linearGradient>
    <linearGradient
       id="linearGradient2226"
       x1="52.326"
       x2="31.113"
       y1="973.87"
       y2="967.86"
       gradientTransform="matrix(.6118 0 0 .58183 2.879 -553.36)"
       gradientUnits="userSpaceOnUse">
      <stop
         stop-color="#121212"
         offset="0"
         id="stop49" />
      <stop
         stop-color="#3f3e3e"
         offset="1"
         id="stop51" />
    </linearGradient>
    <linearGradient
       id="linearGradient2363"
       x1="1.1906"
       x2="15.742"
       y1="12.846"
       y2="12.846"
       gradientTransform="matrix(3.7796,0,0,3.7796,-9.97e-4,9.99e-4)"
       gradientUnits="userSpaceOnUse">
      <stop
         stop-color="#5f6469"
         offset="0"
         id="stop54" />
      <stop
         stop-color="#737373"
         offset=".12512"
         id="stop56" />
      <stop
         stop-color="#373737"
         offset=".27172"
         id="stop58" />
      <stop
         stop-color="#646969"
         offset=".75536"
         id="stop60" />
      <stop
         stop-color="#5f5f5f"
         offset=".87327"
         id="stop62" />
      <stop
         stop-color="#6e7378"
         offset="1"
         id="stop64" />
    </linearGradient>
    <linearGradient
       id="linearGradient2375"
       x1="69.191"
       x2="69.191"
       y1="87.105"
       y2="87.729"
       gradientTransform="matrix(.72727 0 0 .80596 -5.809 -13.064)"
       gradientUnits="userSpaceOnUse">
      <stop
         offset="0"
         id="stop67" />
      <stop
         stop-color="#2f2f2f"
         offset="1"
         id="stop69" />
    </linearGradient>
    <radialGradient
       id="radialGradient2379"
       cx="-18.219"
       cy="85.049"
       r="3.266"
       gradientTransform="matrix(.33324 -.33324 .32476 .32476 -12.258 -21.174)"
       gradientUnits="userSpaceOnUse"
       xlink:href="#linearGradient4178" />
    <linearGradient
       id="linearGradient4178">
      <stop
         stop-color="#8ba4aa"
         offset="0"
         id="stop73" />
      <stop
         stop-color="#6f8c92"
         offset="1"
         id="stop75" />
    </linearGradient>
    <radialGradient
       id="radialGradient2385"
       cx="-18.219"
       cy="85.049"
       r="3.266"
       gradientTransform="matrix(.33324 -.33324 .32476 .32476 33.571 -21.174)"
       gradientUnits="userSpaceOnUse"
       xlink:href="#linearGradient4178" />
    <radialGradient
       id="radialGradient2389"
       cx="-18.219"
       cy="85.049"
       r="3.266"
       gradientTransform="matrix(.33324 -.33324 .32476 .32476 -12.258 -6.485)"
       gradientUnits="userSpaceOnUse"
       xlink:href="#linearGradient4261" />
    <linearGradient
       id="linearGradient4261">
      <stop
         stop-color="#586c71"
         offset="0"
         id="stop80" />
      <stop
         stop-color="#597075"
         offset="1"
         id="stop82" />
    </linearGradient>
    <radialGradient
       id="radialGradient2393"
       cx="-18.219"
       cy="85.049"
       r="3.266"
       gradientTransform="matrix(.33324 -.33324 .32476 .32476 33.571 -6.485)"
       gradientUnits="userSpaceOnUse"
       xlink:href="#linearGradient4261" />
    <radialGradient
       id="radialGradient2397"
       cx="-18.219"
       cy="85.049"
       r="3.266"
       gradientTransform="matrix(.33324 -.33324 .32476 .32476 -12.258 8.204)"
       gradientUnits="userSpaceOnUse"
       xlink:href="#linearGradient4251" />
    <linearGradient
       id="linearGradient4251">
      <stop
         stop-color="#3b3f40"
         offset="0"
         id="stop87" />
      <stop
         stop-color="#4d5253"
         offset="1"
         id="stop89" />
    </linearGradient>
    <radialGradient
       id="radialGradient2401"
       cx="-18.219"
       cy="85.049"
       r="3.266"
       gradientTransform="matrix(.33324 -.33324 .32476 .32476 33.571 8.204)"
       gradientUnits="userSpaceOnUse"
       xlink:href="#linearGradient4251" />
    <filter
       id="filter943"
       x="-0.058649488"
       y="-0.061414017"
       width="1.117299"
       height="1.122828"
       color-interpolation-filters="sRGB">
      <feGaussianBlur
         stdDeviation="1.0747504"
         id="feGaussianBlur9" />
    </filter>
    <linearGradient
       id="linearGradient1006"
       x1="26"
       x2="26"
       y1="35"
       y2="7"
       gradientTransform="matrix(-1.3333,0,0,1.3333,63.878729,-3.0641923)"
       gradientUnits="userSpaceOnUse">
      <stop
         stop-color="#b6b9bf"
         offset="0"
         id="stop42" />
      <stop
         stop-color="#dddfe2"
         offset="1"
         id="stop44-2" />
    </linearGradient>
    <linearGradient
       id="linearGradient893-7"
       x1="3"
       x2="45"
       y1="42"
       y2="42"
       gradientTransform="matrix(1.3333,0,0,1.3333,-0.13227016,-3.0641923)"
       gradientUnits="userSpaceOnUse">
      <stop
         stop-color="#1a1a1a"
         offset="0"
         id="stop12" />
      <stop
         stop-color="#2c2c2e"
         offset=".11054"
         id="stop14" />
      <stop
         stop-color="#2b2b2d"
         offset=".29001"
         id="stop16-7" />
      <stop
         stop-color="#2a2b2d"
         offset=".51187"
         id="stop18-0" />
      <stop
         stop-color="#2b2b2d"
         offset=".75173"
         id="stop20-9" />
      <stop
         stop-color="#323232"
         offset=".89659"
         id="stop22" />
      <stop
         stop-color="#171717"
         offset="1"
         id="stop24" />
    </linearGradient>
    <linearGradient
       id="c-3"
       x1="450.06"
       x2="450.06"
       y1="544.20001"
       y2="543.42999"
       gradientTransform="matrix(1.1756,0,0,3.4682,-495.15805,-1833.0093)"
       gradientUnits="userSpaceOnUse">
      <stop
         stop-color="#24785a"
         offset="0"
         id="stop27" />
      <stop
         stop-color="#67e5b8"
         offset="1"
         id="stop29" />
    </linearGradient>
    <linearGradient
       id="b-2"
       x1="467.17001"
       x2="467.17001"
       y1="546.84998"
       y2="544.71997"
       gradientTransform="matrix(2.5125,0,0,2.5125,-1121.7322,-1318.6974)"
       gradientUnits="userSpaceOnUse">
      <stop
         stop-color="#040404"
         offset="0"
         id="stop32-3" />
      <stop
         stop-color="#121212"
         stop-opacity=".90816"
         offset="1"
         id="stop34-6" />
    </linearGradient>
    <linearGradient
       id="linearGradient975"
       x1="26"
       x2="26"
       y1="35"
       y2="7"
       gradientTransform="matrix(1.3333,0,0,1.3333,-0.010911,-2.6668)"
       gradientUnits="userSpaceOnUse">
      <stop
         stop-color="#e78c09"
         offset="0"
         id="stop37-0" />
      <stop
         stop-color="#fcb519"
         offset="1"
         id="stop39-6" />
    </linearGradient>
    <linearGradient
       id="linearGradient1036"
       x1="7"
       x2="16.790001"
       y1="30"
       y2="31.566999"
       gradientUnits="userSpaceOnUse"
       xlink:href="#linearGradient1034" />
    <linearGradient
       id="linearGradient1034">
      <stop
         stop-opacity="0"
         offset="0"
         id="stop2-2" />
      <stop
         offset=".14083"
         id="stop4-6" />
      <stop
         stop-opacity="0"
         offset="1"
         id="stop6" />
    </linearGradient>
    <linearGradient
       id="linearGradient1042"
       x1="7"
       x2="16.790001"
       y1="30"
       y2="31.566999"
       gradientTransform="matrix(-1,0,0,1,63.939,0)"
       gradientUnits="userSpaceOnUse"
       xlink:href="#linearGradient1034" />
  </defs>
  <path
     transform="matrix(1.3333,0,0,1.3333,-0.13227016,-21.730392)"
     d="m 12.507,20 c -2.894,0 -4.7904,2.1562 -5.2238,4.7676 l -5.2217,31.465 c -0.06451,0.38874 -0.050724,0.76596 0.016324,1.1289 0.19327,2.5991 2.4391,4.6387 5.2054,4.6387 h 33.432 c 2.6606,0 4.84,-1.8872 5.1748,-4.3438 0.1223,-0.45134 0.14747,-0.9294 0.04897,-1.4238 l -6.2685,-31.465 C 39.152804,22.169 37.340694,20 34.446694,20 Z"
     filter="url(#filter943)"
     opacity="0.15"
     id="path51" />
  <path
     d="m 17.189729,3.6026077 c -3.6932,0 -6.113,2.8737 -6.666,6.3555 l -6.6641,41.9530003 c -0.55305,3.4816 2.9728,6.3555 6.666,6.3555 h 21.342 21.342 c 3.6932,0 7.2191,-2.8738 6.666,-6.3555 l -6.6641,-41.9530003 c -0.55304,-3.4818 -2.9728,-6.3555 -6.666,-6.3555 h -14.678 -14.678 z"
     fill="url(#linearGradient1006)"
     stroke-width="1.3333"
     id="path53"
     style="fill:url(#linearGradient1006)" />
  <rect
     x="3.8676293"
     y="46.267609"
     width="55.999001"
     height="13.333"
     ry="6.6665001"
     fill="url(#linearGradient893-7)"
     stroke-width="1.3333"
     id="rect55"
     style="fill:url(#linearGradient893-7)" />
  <rect
     x="20.601946"
     y="51.789722"
     width="26.666"
     height="2.6666"
     ry="1.3333"
     fill="url(#c-3)"
     stroke-width="2.6733"
     id="rect57"
     style="fill:url(#c-3)" />
  <circle
     cx="51.86673"
     cy="52.934608"
     r="2.6666"
     fill="url(#b-2)"
     opacity="0.452"
     stroke-width="2.3647"
     id="circle59"
     style="fill:url(#b-2)" />
  <g
     stroke-width="1.3333"
     id="g71"
     transform="translate(-0.13227096,-0.39739229)">
    <path
       d="m 52.003,52.098 c -0.05365,0 -0.10142,0.01989 -0.14062,0.05989 -0.0392,0.0384 -0.05729,0.08362 -0.05729,0.13802 v 0.99216 c 0,0.0528 0.01809,0.09963 0.05729,0.13802 0.0392,0.0384 0.08698,0.05989 0.14062,0.05989 0.05362,0 0.09886,-0.01989 0.13802,-0.05989 0.0392,-0.0384 0.05989,-0.08523 0.05989,-0.13802 v -0.99216 c 0,-0.0544 -0.02068,-0.09802 -0.05989,-0.13802 C 52.10185,52.11949 52.05665,52.098 52.003,52.098 Z m -0.57029,0.29166 c -0.05416,0 -0.10149,6.63e-4 -0.14584,0.03907 -0.15064,0.112 -0.26851,0.25059 -0.35155,0.41666 -0.08304,0.16606 -0.125,0.34356 -0.125,0.53124 0,0.16096 0.03343,0.31436 0.09636,0.46092 0.06295,0.1472 0.14633,0.27382 0.25259,0.3802 0.10624,0.1056 0.23371,0.18972 0.3802,0.25259 0.14649,0.0624 0.30001,0.09374 0.46092,0.09374 0.16091,0 0.31443,-0.03135 0.46092,-0.09374 0.14649,-0.0624 0.27137,-0.1462 0.37759,-0.25259 0.10624,-0.1056 0.19226,-0.23366 0.25521,-0.3802 0.06293,-0.1472 0.09374,-0.29997 0.09374,-0.46092 0,-0.18768 -0.04194,-0.36516 -0.125,-0.53124 -0.08305,-0.16608 -0.19836,-0.30435 -0.34895,-0.41666 -0.04333,-0.0336 -0.09376,-0.04707 -0.14844,-0.03907 -0.05469,0 -0.09822,0.03232 -0.13021,0.07552 -0.033,0.0432 -0.04419,0.09302 -0.03645,0.14584 0.0077,0.0544 0.03221,0.09921 0.07552,0.13281 0.10105,0.0768 0.17921,0.16825 0.23437,0.27863 0.0552,0.1104 0.08333,0.22938 0.08333,0.35415 0,0.1072 -0.02073,0.2097 -0.06249,0.30728 -0.04177,0.0976 -0.09808,0.1814 -0.16926,0.25259 -0.07118,0.0704 -0.15509,0.12782 -0.25259,0.16926 -0.09748,0.0416 -0.20001,0.06249 -0.30728,0.06249 -0.10728,0 -0.2098,-0.02091 -0.30729,-0.06249 -0.09748,-0.0416 -0.18141,-0.09742 -0.25259,-0.16926 -0.07116,-0.0704 -0.13008,-0.15484 -0.17188,-0.25259 -0.04179,-0.0976 -0.06249,-0.19994 -0.06249,-0.30728 0,-0.1248 0.02815,-0.24378 0.08333,-0.35415 0.0552,-0.1104 0.13326,-0.20217 0.23437,-0.27863 0.04332,-0.0336 0.07037,-0.07841 0.07812,-0.13281 0.0077,-0.0544 -0.0061,-0.10262 -0.03907,-0.14584 -0.03199,-0.0448 -0.07604,-0.06912 -0.13021,-0.07552 z"
       fill="#ffffff"
       id="path61" />
    <path
       d="m 10.666,46.665 c -3.6932,0 -6.6665,2.9733 -6.6665,6.6665 0,0.0784 0.00776,0.15405 0.010413,0.23177 0.062236,-3.446 2.8483,-6.2029 6.3097,-6.2029 h 43.359 c 3.4614,0 6.2474,2.757 6.3097,6.2029 0.0027,-0.07772 0.0104,-0.15337 0.0104,-0.23177 0,-3.6932 -2.9733,-6.6665 -6.6665,-6.6665 h -42.666 z"
       opacity="0.15"
       id="path63" />
    <path
       d="m 17.322,4 c -3.6932,0 -6.113,2.8737 -6.666,6.3555 L 5.2361,44.4805 C 6.7573,41.8404 9.4376,40 12.9998,40 h 19 19 c 3.5622,0 6.2425,1.8404 7.7637,4.4805 L 53.3436,10.3555 C 52.79056,6.8737 50.3708,4 46.6776,4 h -14.678 -14.678 z"
       fill="url(#linearGradient975)"
       id="path65"
       style="fill:url(#linearGradient975)" />
    <path
       d="m 17.322,4 c -3.6932,0 -6.113,2.8737 -6.666,6.3555 l -6.6641,41.953 c -0.086865,0.54684 -0.062117,1.0759 0.037109,1.584 -0.015317,-0.1852 -0.029297,-0.37126 -0.029297,-0.56055 0,-3.6932 2.9728,-6.666 6.666,-6.666 h 21.334 v -42.666 h -14.678 z"
       fill="url(#linearGradient1036)"
       opacity="0.1"
       id="path67"
       style="fill:url(#linearGradient1036)" />
    <path
       d="m 46.617,4 c 3.6932,0 6.113,2.8737 6.666,6.3555 l 6.6641,41.953 c 0.08686,0.54684 0.06212,1.0759 -0.03711,1.584 0.01532,-0.1852 0.0293,-0.37126 0.0293,-0.56055 0,-3.6932 -2.9728,-6.666 -6.666,-6.666 h -21.334 v -42.666 z"
       fill="url(#linearGradient1042)"
       opacity="0.1"
       id="path69"
       style="fill:url(#linearGradient1042)" />
  </g>
  <text
     xml:space="preserve"
     style="font-style:normal;font-variant:normal;font-weight:normal;font-stretch:normal;font-size:3.37175px;line-height:1.25;font-family:sans-serif;-inkscape-font-specification:'sans-serif, Normal';font-variant-ligatures:normal;font-variant-caps:normal;font-variant-numeric:normal;font-variant-east-asian:normal;fill:#fffdff;fill-opacity:1;stroke:none;stroke-width:0.0842938"
     x="6.2690868"
     y="54.142448"
     id="text5500"
     transform="scale(1.0304822,0.97041949)"><tspan
       sodipodi:role="line"
       id="tspan9332"
       x="6.2690868"
       y="54.142448"
       style="stroke-width:0.0842938;fill:#fffdff;fill-opacity:1">Internal</tspan><tspan
       sodipodi:role="line"
       id="tspan9334"
       x="6.2690868"
       y="58.357136"
       style="stroke-width:0.0842938;fill:#fffdff;fill-opacity:1">  Drive</tspan></text>
</svg>
