<?xml version="1.0" encoding="UTF-8" standalone="no"?>
<svg
   xmlns:dc="http://purl.org/dc/elements/1.1/"
   xmlns:cc="http://creativecommons.org/ns#"
   xmlns:rdf="http://www.w3.org/1999/02/22-rdf-syntax-ns#"
   xmlns:svg="http://www.w3.org/2000/svg"
   xmlns="http://www.w3.org/2000/svg"
   xmlns:sodipodi="http://sodipodi.sourceforge.net/DTD/sodipodi-0.dtd"
   xmlns:inkscape="http://www.inkscape.org/namespaces/inkscape"
   width="64"
   height="64"
   version="1.1"
   viewBox="0 0 64 64"
   id="svg31"
   sodipodi:docname="system-software-update.svg"
   inkscape:version="0.92.5 (2060ec1f9f, 2020-04-08)">
  <metadata
     id="metadata35">
    <rdf:RDF>
      <cc:Work
         rdf:about="">
        <dc:format>image/svg+xml</dc:format>
        <dc:type
           rdf:resource="http://purl.org/dc/dcmitype/StillImage" />
      </cc:Work>
    </rdf:RDF>
  </metadata>
  <sodipodi:namedview
     pagecolor="#ffffff"
     bordercolor="#666666"
     borderopacity="1"
     objecttolerance="10"
     gridtolerance="10"
     guidetolerance="10"
     inkscape:pageopacity="0"
     inkscape:pageshadow="2"
     inkscape:window-width="795"
     inkscape:window-height="480"
     id="namedview33"
     showgrid="false"
     inkscape:zoom="3.6875"
     inkscape:cx="32"
     inkscape:cy="32"
     inkscape:window-x="0"
     inkscape:window-y="0"
     inkscape:window-maximized="0"
     inkscape:current-layer="svg31" />
  <defs
     id="defs15">
    <filter
       id="filter1057-1"
       x="-.027"
       y="-.027"
       width="1.054"
       height="1.054"
       color-interpolation-filters="sRGB">
      <feGaussianBlur
         stdDeviation="0.61875"
         id="feGaussianBlur2" />
    </filter>
    <linearGradient
       id="linearGradient980-8"
       x1="-17.007"
       x2="-2.455"
       y1="15.742"
       y2="1.1906"
       gradientTransform="matrix(3.7796 0 0 3.7796 125.14 23.053)"
       gradientUnits="userSpaceOnUse">
      <stop
         stop-color="#ff8228"
         offset="0"
         id="stop5" />
      <stop
         stop-color="#ff7346"
         offset=".49173"
         id="stop7" />
      <stop
         stop-color="#ff8c55"
         offset="1"
         id="stop9" />
    </linearGradient>
    <filter
       id="filter859-2"
       x="-.19864"
       y="-.085966"
       width="1.3973"
       height="1.1719"
       color-interpolation-filters="sRGB">
      <feGaussianBlur
         stdDeviation="0.18176567"
         id="feGaussianBlur12" />
    </filter>
  </defs>
  <g
     transform="translate(-56.357 -23.053)"
     id="g29">
    <rect
       x="60.857"
       y="27.553"
       width="55"
       height="55"
       ry="15"
       fill="#141414"
       filter="url(#filter1057-1)"
       opacity=".3"
       stroke-linecap="round"
       stroke-width="2.7444"
       id="rect17" />
    <rect
       x="60.857"
       y="27.553"
       width="55"
       height="55"
       ry="14.895"
       fill="url(#linearGradient980-8)"
       id="rect19" />
    <path
       d="m100.85 33.826a12.5 12.5 0 0 1 0.0102 0.49997 12.5 12.5 0 0 1-12.5 12.5 12.5 12.5 0 0 1-12.5-12.5 12.5 12.5 0 0 1 0.0098-0.50068"
       fill="none"
       stroke="#fff"
       stroke-dashoffset=".42096"
       stroke-width="2"
       id="path21" />
    <rect
       transform="matrix(-0.57087451,-0.82103733,0.57087451,-0.82103733,0,0)"
       x="-110.67377"
       y="32.338848"
       width="2.4331803"
       height="13.529642"
       ry="1.216553"
       id="rect23"
       style="fill:#fafafa;stroke-width:2.89011383" />
    <path
       transform="matrix(4.0049 0 0 -3.7796 54.012 102.14)"
       d="m8.4673 7.8556c-0.14396 0-0.25968 0.11603-0.25968 0.25999v4.5548c0 0.0135 0.0019 0.02631 0.0038 0.03924 5.06e-4 0.0033 3.27e-4 0.0066 9.88e-4 0.0099 0.0029 0.01507 0.0077 0.02937 0.01308 0.04339 6.79e-4 0.0017 9.26e-4 0.0035 0.0016 0.0051 0.02629 0.06489 0.0777 0.11662 0.1426 0.14291 0.0022 9.26e-4 0.0044 0.0014 0.0067 0.0022 0.01352 0.0051 0.0273 0.0094 0.04179 0.01212 0.01637 0.0032 0.03284 0.0048 0.04945 0.0048 0.0169-2.1e-5 0.03347-0.0017 0.04945-0.0048 1e-4 -1.9e-5 2.12e-4 2e-5 3.26e-4 0 0.01228-0.0024 0.02382-0.0065 0.03541-0.01052 0.0044-0.0015 0.0091-0.0021 0.0134-0.0038 0.0142-0.0058 0.0274-0.01325 0.04019-0.02137 0.0014-9.26e-4 3e-3 -0.0016 0.0044-0.0025 0.01456-0.0096 0.02822-0.02087 0.04052-0.03318l1.6761-1.6761c0.1018-0.1018 0.1018-0.2657 0-0.3675s-0.2657-0.1018-0.3675 0l-1.2326 1.2326v-3.9274c5.5e-5 -0.14396-0.11597-0.25999-0.25994-0.25999z"
       fill="#ff6446"
       filter="url(#filter859-2)"
       stroke-width=".61734"
       id="path25" />
    <path
       d="m 87.98124,79.383732 c -0.54411,0 -0.98149,-0.630727 -0.98149,-1.413272 V 53.211679 c 0,-0.07338 0.0072,-0.143016 0.01436,-0.213301 0.0019,-0.01794 0.0012,-0.03588 0.0037,-0.05382 0.01096,-0.08192 0.0291,-0.159656 0.04944,-0.235867 0.0026,-0.0092 0.0035,-0.01903 0.006,-0.02773 0.09937,-0.352736 0.29368,-0.633934 0.53897,-0.776835 0.0083,-0.005 0.01663,-0.0076 0.02532,-0.01194 0.0511,-0.02773 0.10318,-0.0511 0.15795,-0.06588 0.06187,-0.0174 0.12412,-0.02609 0.1869,-0.02609 0.06388,1.14e-4 0.1265,0.0092 0.1869,0.02609 3.78e-4,1.03e-4 8.02e-4,-1.1e-4 0.0012,0 0.04641,0.01309 0.09003,0.03534 0.13384,0.05718 0.01663,0.0082 0.03439,0.01136 0.05065,0.02065 0.05367,0.03153 0.10356,0.07203 0.1519,0.116165 0.0053,0.005 0.01134,0.0086 0.01663,0.01352 0.05503,0.05218 0.10666,0.113446 0.15315,0.180366 l 6.335,9.111059 c 0.38476,0.553366 0.38476,1.44425 0,1.997673 -0.38476,0.553366 -1.0042,0.553366 -1.389,0 l -4.6586,-6.700188 v 21.348787 c 2.08e-4,0.782544 -0.43832,1.413271 -0.98247,1.413271 z"
       id="path27"
       inkscape:connector-curvature="0"
       style="fill:#fafafa;stroke-width:2.7982192" />
  </g>
</svg>
